<svg width="24" height="24" viewBox="0 0 24 24" fill="none" xmlns="http://www.w3.org/2000/svg">
<path opacity="0.5" d="M14.556 15.548L14.101 16.028C14.101 16.028 13.018 17.167 10.063 14.056C7.10798 10.945 8.19098 9.806 8.19098 9.806L8.47798 9.503C9.18398 8.759 9.25098 7.565 8.63398 6.693L7.37398 4.91C6.60998 3.83 5.13498 3.688 4.25998 4.609L2.69098 6.26C2.25798 6.717 1.96798 7.308 2.00298 7.965C2.09298 9.645 2.81098 13.258 6.81498 17.475C11.062 21.945 15.047 22.123 16.676 21.962C17.192 21.912 17.64 21.633 18.001 21.253L19.421 19.757C20.381 18.747 20.111 17.017 18.883 16.311L16.973 15.211C16.167 14.748 15.186 14.884 14.556 15.547V15.548Z" fill="#4ECB71"/>
<path d="M17 12C18.0873 11.9998 19.145 11.6452 20.0126 10.9899C20.8803 10.3345 21.5107 9.41424 21.8082 8.36843C22.1058 7.32262 22.0544 6.2083 21.6617 5.19435C21.2691 4.1804 20.5566 3.32209 19.6322 2.74948C18.7079 2.17688 17.6221 1.9212 16.5394 2.02118C15.4566 2.12117 14.436 2.57138 13.6322 3.30358C12.8283 4.03578 12.2851 5.01006 12.0848 6.07877C11.8844 7.14748 12.0379 8.25237 12.522 9.226C12.6135 9.40278 12.6373 9.60689 12.589 9.8L12.291 10.913C12.2615 11.0232 12.2615 11.1392 12.291 11.2494C12.3206 11.3596 12.3786 11.4601 12.4593 11.5407C12.5399 11.6214 12.6404 11.6794 12.7506 11.709C12.8608 11.7385 12.9768 11.7385 13.087 11.709L14.2 11.411C14.3931 11.3627 14.5972 11.3865 14.774 11.478C15.4655 11.8223 16.2276 12.001 17 12Z" fill="#4ECB71"/>
</svg>
