<svg width="36" height="36" viewBox="0 0 37 37" fill="none" xmlns="http://www.w3.org/2000/svg">
<g clip-path="url(#clip0_104_6)">
<path d="M14.68 14.81C13.3426 14.81 12.0352 14.4133 10.9233 13.67C9.81141 12.9268 8.94497 11.8704 8.43362 10.6346C7.92226 9.39881 7.78898 8.03909 8.05063 6.72751C8.31227 5.41592 8.9571 4.21143 9.9035 3.26642C10.8499 2.32142 12.0554 1.67838 13.3673 1.41867C14.6793 1.15897 16.0388 1.29427 17.2739 1.80745C18.5089 2.32063 19.564 3.18863 20.3056 4.30162C21.0472 5.41462 21.442 6.72257 21.44 8.06C21.4347 9.85032 20.7205 11.5656 19.4536 12.8307C18.1867 14.0957 16.4703 14.8074 14.68 14.81ZM14.68 3.3C13.7386 3.3 12.8183 3.57917 12.0355 4.10221C11.2527 4.62524 10.6426 5.36865 10.2823 6.23843C9.92205 7.1082 9.82779 8.06528 10.0115 8.98863C10.1951 9.91198 10.6485 10.7601 11.3142 11.4258C11.9799 12.0915 12.828 12.5449 13.7514 12.7285C14.6747 12.9122 15.6318 12.8179 16.5016 12.4577C17.3713 12.0974 18.1148 11.4873 18.6378 10.7045C19.1608 9.92174 19.44 9.00144 19.44 8.06C19.44 6.79757 18.9385 5.58685 18.0458 4.69417C17.1531 3.8015 15.9424 3.3 14.68 3.3Z" fill="black"/>
<path d="M16.42 31.68C16.2014 31.4614 16.0329 31.198 15.9258 30.908C15.8188 30.618 15.7759 30.3082 15.8 30H4V24.22C5.4179 22.707 7.13771 21.5087 9.04809 20.7025C10.9585 19.8963 13.0169 19.5003 15.09 19.54H15.81C15.7641 19.2047 15.7962 18.8634 15.9037 18.5425C16.0112 18.2216 16.1913 17.9299 16.43 17.69L16.55 17.58C16.08 17.58 15.55 17.52 15.09 17.52C12.6504 17.4621 10.2284 17.947 7.99917 18.9397C5.76993 19.9324 3.78913 21.4081 2.2 23.26C2.07018 23.4331 2 23.6436 2 23.86V30C2 30.5304 2.21071 31.0391 2.58579 31.4142C2.96086 31.7893 3.46957 32 4 32H16.7L16.42 31.68Z" fill="black"/>
<path d="M26.87 16.29C26.9195 16.2798 26.9705 16.2798 27.02 16.29C26.9704 16.281 26.9196 16.281 26.87 16.29Z" fill="black"/>
<path d="M33.68 23.32L31.68 22.71C31.5371 22.2208 31.3426 21.7482 31.1 21.3L32.1 19.44C32.1325 19.3656 32.1404 19.2827 32.1224 19.2036C32.1044 19.1244 32.0615 19.053 32 19L30.55 17.55C30.4952 17.4906 30.422 17.4515 30.3421 17.4388C30.2623 17.4261 30.1806 17.4406 30.11 17.48L28.27 18.48C27.8169 18.2253 27.3374 18.0208 26.84 17.87L26.23 15.87C26.2041 15.7964 26.155 15.7332 26.0901 15.6899C26.0252 15.6466 25.9479 15.6256 25.87 15.63H23.82C23.7413 15.6291 23.6644 15.654 23.6012 15.701C23.538 15.748 23.4919 15.8143 23.47 15.89L22.86 17.89C22.3592 18.0357 21.8762 18.237 21.42 18.49L19.6 17.49C19.531 17.4514 19.4509 17.4372 19.3728 17.4499C19.2947 17.4627 19.2232 17.5015 19.17 17.56L17.69 19C17.6351 19.0578 17.5998 19.1314 17.5891 19.2103C17.5783 19.2893 17.5926 19.3696 17.63 19.44L18.63 21.26C18.3655 21.7108 18.1541 22.1906 18 22.69L16 23.29C15.9244 23.3119 15.858 23.3579 15.811 23.4212C15.764 23.4844 15.7391 23.5613 15.74 23.64V25.69C15.7459 25.7622 15.7741 25.8309 15.8207 25.8864C15.8673 25.9419 15.9299 25.9816 16 26L18 26.61C18.1478 27.1005 18.349 27.5734 18.6 28.02L17.6 29.93C17.5619 29.9984 17.5471 30.0775 17.5579 30.1551C17.5687 30.2327 17.6046 30.3046 17.66 30.36L19.11 31.81C19.1667 31.8665 19.2397 31.9037 19.3187 31.9163C19.3977 31.9288 19.4786 31.9161 19.55 31.88L21.42 30.88C21.865 31.1193 22.3344 31.3104 22.82 31.45L23.42 33.45C23.4446 33.524 23.4914 33.5887 23.554 33.6352C23.6166 33.6817 23.692 33.7078 23.77 33.71H25.82C25.8984 33.7093 25.9745 33.6838 26.0374 33.637C26.1003 33.5903 26.1467 33.5248 26.17 33.45L26.78 31.4C27.2592 31.2603 27.7219 31.0692 28.16 30.83L30.05 31.83C30.1195 31.8669 30.1991 31.8801 30.2768 31.8674C30.3545 31.8548 30.4258 31.8171 30.48 31.76L32 30.4C32.0409 30.3413 32.0628 30.2715 32.0628 30.2C32.0628 30.1285 32.0409 30.0587 32 30L31 28.12C31.2428 27.6789 31.4372 27.2128 31.58 26.73L33.58 26.12C33.6557 26.0981 33.7221 26.0521 33.769 25.9888C33.816 25.9256 33.8409 25.8488 33.84 25.77V23.67C33.8492 23.6025 33.839 23.5338 33.8107 23.4718C33.7824 23.4099 33.7371 23.3572 33.68 23.32ZM24.85 28C24.1886 28.002 23.5414 27.8075 22.9907 27.4413C22.4399 27.075 22.0102 26.5535 21.7562 25.9428C21.5022 25.3321 21.4352 24.6597 21.5637 24.0109C21.6923 23.362 22.0106 22.766 22.4783 22.2983C22.946 21.8306 23.5421 21.5123 24.1909 21.3837C24.8397 21.2552 25.5121 21.3221 26.1228 21.5762C26.7335 21.8302 27.255 22.2599 27.6213 22.8106C27.9875 23.3614 28.182 24.0086 28.18 24.67C28.1774 25.5524 27.8257 26.3978 27.2018 27.0218C26.5778 27.6457 25.7324 27.9974 24.85 28Z" fill="black"/>
</g>
<defs>
<clipPath id="clip0_104_6">
<rect width="36" height="36" fill="white"/>
</clipPath>
</defs>
</svg>
