<svg width="16" height="16" viewBox="0 0 16 16" fill="none" xmlns="http://www.w3.org/2000/svg">
<path fill-rule="evenodd" clip-rule="evenodd" d="M2.87 7.75L4.84 9.72C4.91369 9.78866 4.97279 9.87146 5.01378 9.96346C5.05477 10.0555 5.07681 10.1548 5.07859 10.2555C5.08037 10.3562 5.06184 10.4562 5.02412 10.5496C4.9864 10.643 4.93026 10.7278 4.85904 10.799C4.78782 10.8703 4.70299 10.9264 4.6096 10.9641C4.51621 11.0018 4.41618 11.0204 4.31548 11.0186C4.21477 11.0168 4.11546 10.9948 4.02346 10.9538C3.93146 10.9128 3.84866 10.8537 3.78 10.78L0.53 7.53L0 7L0.53 6.47L3.78 3.22C3.92217 3.08752 4.11022 3.0154 4.30452 3.01882C4.49882 3.02225 4.68421 3.10096 4.82162 3.23838C4.95903 3.37579 5.03775 3.56118 5.04117 3.75548C5.0446 3.94978 4.97248 4.13782 4.84 4.28L2.87 6.25H12.75C13.612 6.25 14.4386 6.59241 15.0481 7.2019C15.6576 7.8114 16 8.63805 16 9.5C16 10.362 15.6576 11.1886 15.0481 11.7981C14.4386 12.4076 13.612 12.75 12.75 12.75H10.75C10.5511 12.75 10.3603 12.671 10.2197 12.5303C10.079 12.3897 10 12.1989 10 12C10 11.8011 10.079 11.6103 10.2197 11.4697C10.3603 11.329 10.5511 11.25 10.75 11.25H12.75C13.2141 11.25 13.6592 11.0656 13.9874 10.7374C14.3156 10.4092 14.5 9.96413 14.5 9.5C14.5 9.03587 14.3156 8.59075 13.9874 8.26256C13.6592 7.93437 13.2141 7.75 12.75 7.75H2.87Z" fill="black"/>
</svg>