<svg width="21" height="20" viewBox="0 0 21 20" fill="none" xmlns="http://www.w3.org/2000/svg">
<path d="M1.15684 9H5.15684M19.1568 9H9.15684M8.15684 12H12.1568M16.1568 7L13.1568 1M4.15684 7L7.15684 1" stroke="black" stroke-width="1.5" stroke-linecap="round" stroke-linejoin="round"/>
<path d="M18.1728 14.257C17.6858 16.53 17.4428 17.666 16.6178 18.333C15.7928 19 14.6308 19 12.3068 19H8.00684C5.68284 19 4.52084 19 3.69684 18.333C2.87084 17.666 2.62684 16.53 2.14084 14.257L1.71184 12.257C0.993841 8.904 0.633841 7.227 1.53484 6.114C2.43484 5 4.14984 5 7.57884 5H12.7348C16.1648 5 17.8778 5 18.7788 6.114C19.4488 6.944 19.4218 8.086 19.0668 10" stroke="black" stroke-width="1.5" stroke-linecap="round"/>
</svg>
