<svg width="2048" height="1280" viewBox="0 0 2048 1280" fill="none" xmlns="http://www.w3.org/2000/svg">
<path d="M624 448C624 472 619.333 494.667 610 516C600.667 537.333 588 556 572 572C556 588 537.333 600.667 516 610C494.667 619.333 472 624 448 624C424 624 401.333 619.333 380 610C358.667 600.667 340 588 324 572C308 556 295.333 537.333 286 516C276.667 494.667 272 472 272 448C272 424 276.667 401.333 286 380C295.333 358.667 308 340 324 324C340 308 358.667 295.333 380 286C401.333 276.667 424 272 448 272C472 272 494.667 276.667 516 286C537.333 295.333 556 308 572 324C588 340 600.667 358.667 610 380C619.333 401.333 624 424 624 448ZM448 528C470 528 488.667 520.333 504 505C519.333 489.667 527.333 470.667 528 448C528 426 520.333 407.333 505 392C489.667 376.667 470.667 368.667 448 368C426 368 407.333 375.667 392 391C376.667 406.333 368.667 425.333 368 448C368 470 375.667 488.667 391 504C406.333 519.333 425.333 527.333 448 528ZM960 656C984 656 1006.67 660.667 1028 670C1049.33 679.333 1068 692 1084 708C1100 724 1112.67 742.667 1122 764C1131.33 785.333 1136 808 1136 832C1136 856 1131.33 878.667 1122 900C1112.67 921.333 1100 940 1084 956C1068 972 1049.33 984.667 1028 994C1006.67 1003.33 984 1008 960 1008C936 1008 913.333 1003.33 892 994C870.667 984.667 852 972 836 956C820 940 807.333 921.333 798 900C788.667 878.667 784 856 784 832C784 808 788.667 785.333 798 764C807.333 742.667 820 724 836 708C852 692 870.667 679.333 892 670C913.333 660.667 936 656 960 656ZM960 912C982 912 1000.67 904.333 1016 889C1031.33 873.667 1039.33 854.667 1040 832C1040 810 1032.33 791.333 1017 776C1001.67 760.667 982.667 752.667 960 752C938 752 919.333 759.667 904 775C888.667 790.333 880.667 809.333 880 832C880 854 887.667 872.667 903 888C918.333 903.333 937.333 911.333 960 912ZM842 256H950L566 1024H458L842 256ZM1408 0L2048 640L1408 1280H0V0H1408ZM1355 1152L1867 640L1355 128H128V1152H1355ZM1536 576C1553.33 576 1568.33 582.333 1581 595C1593.67 607.667 1600 622.667 1600 640C1600 657.333 1593.67 672.333 1581 685C1568.33 697.667 1553.33 704 1536 704C1518.67 704 1503.67 697.667 1491 685C1478.33 672.333 1472 657.333 1472 640C1472 622.667 1478.33 607.667 1491 595C1503.67 582.333 1518.67 576 1536 576Z" fill="black"/>
</svg>
