<svg width="36" height="36" viewBox="0 0 36 36" fill="none" xmlns="http://www.w3.org/2000/svg">
<g clip-path="url(#clip0_105_19)">
<path d="M36 27C36 28.0609 35.5786 29.0783 34.8284 29.8284C34.0783 30.5786 33.0609 31 32 31H4C2.93913 31 1.92172 30.5786 1.17157 29.8284C0.421427 29.0783 0 28.0609 0 27V9C0 7.93913 0.421427 6.92172 1.17157 6.17157C1.92172 5.42143 2.93913 5 4 5H32C33.0609 5 34.0783 5.42143 34.8284 6.17157C35.5786 6.92172 36 7.93913 36 9V27Z" fill="#CCD6DD"/>
<path d="M11.95 17.636L0.636996 28.949C0.609996 28.977 0.599996 29.012 0.576996 29.04C0.916996 29.61 1.391 30.083 1.961 30.424C1.99 30.401 2.024 30.391 2.051 30.364L13.365 19.05C13.5525 18.8624 13.6578 18.6079 13.6577 18.3426C13.6576 18.0774 13.5521 17.823 13.3645 17.6355C13.1769 17.448 12.9224 17.3427 12.6571 17.3428C12.3919 17.3429 12.1375 17.4484 11.95 17.636ZM35.423 29.04C35.402 29.012 35.39 28.977 35.363 28.95L24.051 17.636C23.9582 17.5431 23.8479 17.4694 23.7266 17.4191C23.6053 17.3688 23.4752 17.3428 23.3438 17.3428C23.2125 17.3427 23.0824 17.3686 22.9611 17.4188C22.8397 17.469 22.7294 17.5427 22.6365 17.6355C22.5436 17.7283 22.4699 17.8386 22.4196 17.9599C22.3693 18.0812 22.3433 18.2113 22.3433 18.3426C22.3432 18.474 22.3691 18.6041 22.4193 18.7254C22.4695 18.8468 22.5432 18.9571 22.636 19.05L33.949 30.364C33.975 30.39 34.011 30.401 34.039 30.424C34.6084 30.0851 35.0841 29.6094 35.423 29.04Z" fill="#99AAB5"/>
<path d="M32 5H4C2.93913 5 1.92172 5.42143 1.17157 6.17157C0.421427 6.92172 0 7.93913 0 9L0 10.03L14.528 24.526C15.4427 25.4354 16.6802 25.9458 17.97 25.9458C19.2598 25.9458 20.4973 25.4354 21.412 24.526L36 10.009V9C36 7.93913 35.5786 6.92172 34.8284 6.17157C34.0783 5.42143 33.0609 5 32 5Z" fill="#99AAB5"/>
<path d="M32 5H4C3.24723 5.00168 2.51028 5.21616 1.87419 5.61869C1.23809 6.02123 0.728769 6.59542 0.404999 7.275L15.171 22.042C15.5424 22.4135 15.9834 22.7081 16.4687 22.9091C16.954 23.1102 17.4742 23.2136 17.9995 23.2136C18.5248 23.2136 19.045 23.1102 19.5303 22.9091C20.0156 22.7081 20.4566 22.4135 20.828 22.042L35.595 7.275C35.2713 6.59535 34.762 6.02109 34.1259 5.61854C33.4898 5.21599 32.7528 5.00156 32 5Z" fill="#E1E8ED"/>
<path d="M15 9.27C15 8.54 15.365 8 16 8H19.62C20.459 8 20.794 8.49 20.794 9C20.794 9.496 20.445 10 19.759 10H17.051V12H19.584C20.3 12 20.649 12.489 20.649 13C20.649 13.496 20.283 14 19.584 14H17.051V16H19.891C20.59 16 20.928 16.489 20.928 17C20.928 17.496 20.575 18 19.891 18H16.125C15.482 18 15 17.469 15 16.812V9.27Z" fill="#66757F"/>
</g>
<defs>
<clipPath id="clip0_105_19">
<rect width="36" height="36" fill="white"/>
</clipPath>
</defs>
</svg>
