<svg width="100" height="100" viewBox="0 0 100 100" fill="none" xmlns="http://www.w3.org/2000/svg">
<path d="M64.0039 33.8617C59.9725 37.8932 55.1612 43.1312 54.5705 49.948C55.1612 56.7648 59.9727 62.0029 64.0039 66.0344C69.4635 70.7391 72.9203 77.7037 72.9203 85.4762C72.9203 85.4898 72.9194 85.5033 72.9192 85.517H72.9203V96.4594H21.611V85.517H21.6121C21.6121 85.5033 21.611 85.4898 21.611 85.4762C21.611 77.7037 25.0678 70.7391 30.5274 66.0344C34.5588 62.0029 39.3701 56.7648 39.9608 49.948C39.3701 43.1312 34.5586 37.8932 30.5274 33.8617C25.0678 29.157 21.611 22.1924 21.611 14.4199V3.31289H72.9203V14.4199C72.9203 22.1924 69.4635 29.157 64.0039 33.8617Z" fill="#F9E7C0"/>
<path d="M47.2656 83.4969C49.1752 83.4969 58.882 94.0617 58.882 94.0617H35.6492C35.6492 94.0617 45.356 83.4969 47.2656 83.4969ZM46.2402 69.4689C46.0875 69.467 45.9359 69.4953 45.7942 69.5524C45.6525 69.6095 45.5236 69.6941 45.4149 69.8014C45.3062 69.9087 45.2198 70.0365 45.1609 70.1775C45.102 70.3184 45.0717 70.4696 45.0717 70.6224C45.0717 70.7751 45.102 70.9263 45.1609 71.0673C45.2198 71.2082 45.3062 71.336 45.4149 71.4433C45.5236 71.5506 45.6525 71.6353 45.7942 71.6923C45.9359 71.7494 46.0875 71.7778 46.2402 71.7758C46.5435 71.7718 46.8331 71.6486 47.0461 71.4327C47.2592 71.2168 47.3787 70.9257 47.3787 70.6224C47.3787 70.319 47.2592 70.0279 47.0461 69.812C46.8331 69.5962 46.5435 69.4729 46.2402 69.4689ZM47.3937 73.5703C47.241 73.5683 47.0894 73.5967 46.9477 73.6538C46.806 73.7108 46.6771 73.7955 46.5684 73.9028C46.4597 74.0101 46.3734 74.1379 46.3144 74.2788C46.2555 74.4198 46.2252 74.571 46.2252 74.7237C46.2252 74.8765 46.2555 75.0277 46.3144 75.1686C46.3734 75.3096 46.4597 75.4374 46.5684 75.5447C46.6771 75.652 46.806 75.7366 46.9477 75.7937C47.0894 75.8508 47.241 75.8791 47.3937 75.8771C47.697 75.8732 47.9866 75.7499 48.1997 75.5341C48.4128 75.3182 48.5322 75.0271 48.5322 74.7237C48.5322 74.4204 48.4128 74.1293 48.1997 73.9134C47.9866 73.6975 47.697 73.5743 47.3937 73.5703ZM44.5988 80.4553C44.4461 80.4533 44.2945 80.4817 44.1528 80.5387C44.0111 80.5958 43.8822 80.6804 43.7735 80.7877C43.6648 80.895 43.5784 81.0229 43.5195 81.1638C43.4606 81.3047 43.4303 81.4559 43.4303 81.6087C43.4303 81.7614 43.4606 81.9127 43.5195 82.0536C43.5784 82.1945 43.6648 82.3223 43.7735 82.4296C43.8822 82.5369 44.0111 82.6216 44.1528 82.6787C44.2945 82.7357 44.4461 82.7641 44.5988 82.7621C44.9021 82.7582 45.1917 82.6349 45.4047 82.419C45.6178 82.2031 45.7373 81.912 45.7373 81.6087C45.7373 81.3054 45.6178 81.0142 45.4047 80.7984C45.1917 80.5825 44.9021 80.4592 44.5988 80.4553ZM48.0285 64.2113C47.8758 64.2093 47.7242 64.2377 47.5825 64.2948C47.4408 64.3519 47.3119 64.4365 47.2031 64.5438C47.0944 64.6511 47.0081 64.7789 46.9492 64.9199C46.8903 65.0608 46.86 65.212 46.86 65.3647C46.86 65.5175 46.8903 65.6687 46.9492 65.8096C47.0081 65.9506 47.0944 66.0784 47.2031 66.1857C47.3119 66.293 47.4408 66.3776 47.5825 66.4347C47.7242 66.4918 47.8758 66.5202 48.0285 66.5182C48.3318 66.5142 48.6213 66.391 48.8344 66.1751C49.0475 65.9592 49.167 65.6681 49.167 65.3647C49.167 65.0614 49.0475 64.7703 48.8344 64.5544C48.6213 64.3385 48.3318 64.2153 48.0285 64.2113ZM28.1742 23.2279C28.1742 28.0162 33.5902 32.307 36.9537 35.2055C39.4373 37.6891 43.6836 42.3889 43.6836 48.2889C43.6836 48.4865 43.6929 48.6758 43.7084 48.8594C43.8332 53.6791 44.4504 59.0541 45.9814 60.9721C45.8586 61.1224 45.7757 61.3012 45.7404 61.492C45.7051 61.6829 45.7185 61.8795 45.7794 62.0638C45.8403 62.2481 45.9467 62.4141 46.0887 62.5463C46.2308 62.6785 46.4039 62.7728 46.5921 62.8203C46.7802 62.8679 46.9774 62.8672 47.1652 62.8183C47.353 62.7694 47.5255 62.6739 47.6666 62.5407C47.8077 62.4074 47.9129 62.2407 47.9725 62.056C48.0321 61.8713 48.0441 61.6746 48.0074 61.484C50.0631 60.2197 50.776 53.6512 50.8424 47.8652C51.1939 42.8842 55.2041 37.5789 57.5775 35.2055C60.941 32.307 66.357 28.0164 66.357 23.2279C66.357 20.8984 28.1742 20.8984 28.1742 23.2279ZM48.591 78.2576C48.4383 78.2556 48.2867 78.284 48.145 78.3411C48.0033 78.3981 47.8744 78.4828 47.7656 78.5901C47.6569 78.6974 47.5706 78.8252 47.5117 78.9661C47.4528 79.1071 47.4225 79.2583 47.4225 79.411C47.4225 79.5638 47.4528 79.715 47.5117 79.8559C47.5706 79.9969 47.6569 80.1247 47.7656 80.232C47.8744 80.3393 48.0033 80.4239 48.145 80.481C48.2867 80.5381 48.4383 80.5664 48.591 80.5645C48.8943 80.5605 49.1838 80.4372 49.3969 80.2214C49.61 80.0055 49.7295 79.7144 49.7295 79.411C49.7295 79.1077 49.61 78.8166 49.3969 78.6007C49.1838 78.3848 48.8943 78.2616 48.591 78.2576Z" fill="#FFB636"/>
<path d="M72.9205 6.17715H21.6109C20.0289 6.17715 18.7465 4.89473 18.7465 3.3127C18.7465 1.73066 20.0289 0.448242 21.6109 0.448242H72.9205C74.5025 0.448242 75.7849 1.73066 75.7849 3.3127C75.7849 4.89473 74.5023 6.17715 72.9205 6.17715ZM75.7849 96.4594C75.7849 94.8773 74.5025 93.5951 72.9205 93.5951H21.6109C20.0289 93.5951 18.7465 94.8773 18.7465 96.4594C18.7465 98.0414 20.0289 99.3236 21.6109 99.3236H72.9205C74.5023 99.3236 75.7849 98.0414 75.7849 96.4594Z" fill="#68442A"/>
<path d="M66.357 22.5453C66.357 24.318 57.8095 25.7551 47.2656 25.7551C36.7217 25.7551 28.1742 24.318 28.1742 22.5453C28.1742 20.7727 36.7217 19.3355 47.2656 19.3355C57.8095 19.3355 66.357 20.7727 66.357 22.5453Z" fill="#FFD469"/>
</svg>
