<svg width="30" height="30" viewBox="0 0 100 100" fill="none" xmlns="http://www.w3.org/2000/svg">
<path d="M70.7031 21.3184V13.7695C70.7031 13.1152 69.9512 12.7539 69.4434 13.1543L25.4199 47.5391C25.0459 47.8299 24.7432 48.2024 24.535 48.6281C24.3268 49.0537 24.2186 49.5213 24.2186 49.9951C24.2186 50.4689 24.3268 50.9365 24.535 51.3622C24.7432 51.7878 25.0459 52.1603 25.4199 52.4512L69.4434 86.8359C69.9609 87.2363 70.7031 86.875 70.7031 86.2207V78.6719C70.7031 78.1933 70.4785 77.7344 70.1074 77.4414L34.9512 50L70.1074 22.5488C70.4785 22.2559 70.7031 21.7969 70.7031 21.3184Z" fill="black"/>
</svg>
