<svg width="100" height="100" viewBox="0 0 100 100" fill="none" xmlns="http://www.w3.org/2000/svg">
<path d="M77.0833 84.3625V66.6667C77.0833 66.6667 66.6667 60.4167 50 60.4167C33.3333 60.4167 22.9167 66.6667 22.9167 66.6667V84.3625M6.25 50C6.25 25.8375 25.8375 6.25 50 6.25C74.1625 6.25 93.75 25.8375 93.75 50C93.75 74.1625 74.1625 93.75 50 93.75C25.8375 93.75 6.25 74.1625 6.25 50ZM49.6917 52.0833C49.6917 52.0833 35.4167 44.5 35.4167 33.3333C35.4167 25.2792 41.9542 18.75 50.0167 18.75C51.9311 18.7494 53.8269 19.1264 55.5956 19.8593C57.3642 20.5922 58.971 21.6666 60.324 23.0211C61.6769 24.3757 62.7495 25.9837 63.4804 27.7531C64.2113 29.5226 64.5861 31.4189 64.5833 33.3333C64.5833 44.5 50.3083 52.0833 50.3083 52.0833H49.6917Z" stroke="black" stroke-width="4.16667"/>
</svg>
