<svg width="30" height="30" viewBox="0 0 100 100" fill="none" xmlns="http://www.w3.org/2000/svg">
<path d="M74.7754 47.5391L30.752 13.1543C30.6369 13.0637 30.4987 13.0074 30.3531 12.9919C30.2075 12.9764 30.0605 13.0022 29.929 13.0665C29.7974 13.1307 29.6866 13.2308 29.6094 13.3551C29.5321 13.4795 29.4915 13.6231 29.4922 13.7695V21.3184C29.4922 21.7969 29.7168 22.2559 30.0879 22.5488L65.2441 50L30.0879 77.4512C29.707 77.7441 29.4922 78.2031 29.4922 78.6816V86.2305C29.4922 86.8848 30.2441 87.2461 30.752 86.8457L74.7754 52.4609C75.1496 52.1691 75.4523 51.7957 75.6605 51.3693C75.8686 50.9428 75.9769 50.4745 75.9769 50C75.9769 49.5255 75.8686 49.0572 75.6605 48.6307C75.4523 48.2043 75.1496 47.8309 74.7754 47.5391Z" fill="black"/>
</svg>
