<svg width="14" height="14" viewBox="0 0 14 14" fill="none" xmlns="http://www.w3.org/2000/svg">
<g clip-path="url(#clip0_239_58)">
<path d="M7 0C10.87 0 14 3.13 14 7C14 10.87 10.87 14 7 14C3.13 14 0 10.87 0 7C0 3.13 3.13 0 7 0ZM5.72 10.69C8.82 10.69 10.52 8.12 10.52 5.89V5.67C10.85 5.43 11.14 5.13 11.36 4.79C11.06 4.92 10.73 5.01 10.39 5.06C10.74 4.85 11.01 4.52 11.13 4.13C10.8 4.32 10.44 4.46 10.06 4.54C9.75 4.21 9.31 4.01 8.83 4.01C7.9 4.01 7.14 4.77 7.14 5.7C7.14 5.83 7.15 5.96 7.19 6.08C5.79 6.01 4.54 5.34 3.71 4.32C3.57 4.57 3.48 4.86 3.48 5.17C3.48 5.75 3.78 6.27 4.23 6.57C3.95 6.57 3.69 6.49 3.47 6.36V6.38C3.47 7.2 4.05 7.88 4.82 8.04C4.68 8.08 4.53 8.1 4.38 8.1C4.27 8.1 4.17 8.09 4.06 8.07C4.27 8.74 4.9 9.23 5.63 9.24C5.05 9.69 4.32 9.96 3.53 9.96C3.39 9.96 3.26 9.96 3.13 9.94C3.87 10.42 4.76 10.7 5.71 10.7" fill="#1DA1F2"/>
</g>
<defs>
<clipPath id="clip0_239_58">
<rect width="14" height="14" fill="white"/>
</clipPath>
</defs>
</svg>
