
<svg width="100" height="100" viewBox="0 0 100 100" fill="none" xmlns="http://www.w3.org/2000/svg">
<path d="M80.3359 75.9141C80.6263 76.2044 80.8566 76.5491 81.0137 76.9284C81.1709 77.3078 81.2517 77.7144 81.2517 78.125C81.2517 78.5356 81.1709 78.9422 81.0137 79.3216C80.8566 79.7009 80.6263 80.0456 80.3359 80.3359C80.0456 80.6263 79.7009 80.8566 79.3216 81.0137C78.9422 81.1709 78.5356 81.2517 78.125 81.2517C77.7144 81.2517 77.3078 81.1709 76.9284 81.0137C76.5491 80.8566 76.2044 80.6263 75.9141 80.3359L50 54.418L24.0859 80.3359C23.4996 80.9223 22.7043 81.2517 21.875 81.2517C21.0457 81.2517 20.2504 80.9223 19.6641 80.3359C19.0777 79.7496 18.7483 78.9543 18.7483 78.125C18.7483 77.2957 19.0777 76.5004 19.6641 75.9141L45.582 50L19.6641 24.0859C19.0777 23.4996 18.7483 22.7043 18.7483 21.875C18.7483 21.0457 19.0777 20.2504 19.6641 19.6641C20.2504 19.0777 21.0457 18.7483 21.875 18.7483C22.7043 18.7483 23.4996 19.0777 24.0859 19.6641L50 45.582L75.9141 19.6641C76.5004 19.0777 77.2957 18.7483 78.125 18.7483C78.9543 18.7483 79.7496 19.0777 80.3359 19.6641C80.9223 20.2504 81.2517 21.0457 81.2517 21.875C81.2517 22.7043 80.9223 23.4996 80.3359 24.0859L54.418 50L80.3359 75.9141Z" fill="black"/>
</svg>