<svg width="20" height="20" viewBox="0 0 20 20" fill="none" xmlns="http://www.w3.org/2000/svg">
<path d="M11.603 9.833L9.35699 8.785C9.16099 8.694 8.99999 8.796 8.99999 9.013V10.987C8.99999 11.204 9.16099 11.306 9.35699 11.215L11.602 10.167C11.799 10.075 11.799 9.925 11.603 9.833ZM9.99999 0.4C4.69799 0.4 0.399994 4.698 0.399994 10C0.399994 15.302 4.69799 19.6 9.99999 19.6C15.302 19.6 19.6 15.302 19.6 10C19.6 4.698 15.302 0.4 9.99999 0.4ZM9.99999 13.9C5.08599 13.9 4.99999 13.457 4.99999 10C4.99999 6.543 5.08599 6.1 9.99999 6.1C14.914 6.1 15 6.543 15 10C15 13.457 14.914 13.9 9.99999 13.9Z" fill="#FF0000"/>
</svg>
